<?xml version="1.0" encoding="UTF-8" standalone="no"?>
<!-- Created with Inkscape (http://www.inkscape.org/) -->

<svg
   width="81.087456mm"
   height="33.729473mm"
   viewBox="0 0 81.087459 33.729472"
   version="1.1"
   id="svg5"
   xmlns="http://www.w3.org/2000/svg"
   xmlns:svg="http://www.w3.org/2000/svg">
  <defs
     id="defs2" />
  <g
     id="layer1"
     transform="matrix(2.035683,0,0,2.035683,-250.39389,-306.23208)"
     style="display:inline;fill:#ffffff;fill-opacity:0">
    <path
       id="rect325"
       style="fill:#ffffff;fill-opacity:0;stroke:#ffffff;stroke-width:0.593845;stroke-dasharray:none;stroke-opacity:1"
       d="M 123.29939,150.72903 V 164.713 h 2.06287 v -11.99283 h 17.55909 v -1.99114 z m 21.6806,5.38637 v -3.40601 h -2.06285 l 0.004,-1.98036 H 123.29932 V 164.713 h 2.06285 v 1.99114 l 19.61777,-0.0108 v -3.28079" />
  </g>
  <g
     aria-label="FBRULES"
     transform="matrix(0.66031549,0,0,0.71205324,1.1720645e-4,-3.1881447e-5)"
     id="text113"
     style="font-size:27.5604px;font-family:'Racing Sans One';-inkscape-font-specification:'Racing Sans One';display:inline;fill:#ffffff;fill-opacity:1;stroke:#ffffff;stroke-width:0.458795;stroke-opacity:1">
    <path
       d="m 17.536929,17.807686 h 11.602928 l -0.440966,2.094591 h -5.649882 l -1.074856,5.043553 h 4.712828 l -0.440966,2.122151 h -4.712828 l -1.763866,8.240559 h -5.953046 z"
       id="path1942"
       style="fill:#ffffff;fill-opacity:1;stroke:#ffffff;stroke-opacity:1" />
    <path
       d="m 44.242935,21.803944 q 0,0.799252 -0.248044,1.433141 -0.220483,0.633889 -0.633889,1.129977 -0.413406,0.496087 -0.964614,0.881932 -0.551208,0.385846 -1.212658,0.716571 0.303165,0.110241 0.716571,0.358285 0.413406,0.220483 0.799251,0.633889 0.385846,0.413406 0.63389,1.074856 0.275604,0.633889 0.275604,1.570943 0,1.240218 -0.523648,2.287513 -0.523648,1.047295 -1.570943,1.818986 -1.019735,0.744131 -2.535557,1.185097 -1.488261,0.413406 -3.44505,0.413406 H 27.34841 l 3.720654,-17.500854 h 7.248385 q 1.074855,0 2.122151,0.165363 1.074855,0.137802 1.901667,0.578768 0.854373,0.440967 1.37802,1.240218 0.523648,0.771691 0.523648,2.011909 z m -7.496429,3.334809 q 0.606329,0 1.019735,-0.358285 0.440966,-0.358286 0.71657,-0.881933 0.275604,-0.551208 0.413406,-1.157537 0.137802,-0.633889 0.137802,-1.129976 0,-0.799252 -0.385845,-1.35046 -0.358286,-0.578768 -1.157537,-0.578768 h -0.826812 l -1.185097,5.456959 z m -1.984349,8.433482 q 0.826812,0 1.37802,-0.468527 0.551208,-0.468526 0.909493,-1.157536 0.358286,-0.68901 0.496088,-1.433141 0.165362,-0.771691 0.165362,-1.35046 0,-0.964614 -0.413406,-1.515822 -0.385846,-0.578768 -1.267778,-0.578768 h -1.019735 l -1.35046,6.504254 z"
       id="path1944"
       style="fill:#ffffff;fill-opacity:1;stroke:#ffffff;stroke-opacity:1" />
    <path
       d="m 61.6611,21.969307 q 0,1.626063 -0.909493,3.004083 -0.909494,1.37802 -3.004084,2.094591 l 3.197006,8.240559 H 54.79856 l -2.425315,-7.63423 h -0.303164 l -1.626064,7.63423 h -5.953046 l 3.720654,-17.500854 h 7.248385 q 1.267778,0 2.397755,0.165363 1.129976,0.137802 1.956788,0.606329 0.854372,0.440966 1.35046,1.267778 0.496087,0.799252 0.496087,2.122151 z m -7.937395,3.941137 q 0.71657,0 1.212657,-0.468527 0.523648,-0.496087 0.826812,-1.185097 0.330725,-0.68901 0.468527,-1.460701 0.137802,-0.799252 0.137802,-1.37802 0,-0.716571 -0.248044,-1.212658 -0.248043,-0.523647 -1.074855,-0.523647 h -1.240218 l -1.37802,6.22865 z"
       id="path1946"
       style="fill:#ffffff;fill-opacity:1;stroke:#ffffff;stroke-opacity:1" />
    <path
       d="m 69.074796,29.05233 q -0.137802,0.606328 -0.220483,1.047295 -0.08268,0.440966 -0.08268,0.826812 0,0.964614 0.661449,1.543382 0.68901,0.578769 2.01191,0.578769 0.964614,0 1.570942,-0.330725 0.63389,-0.330725 1.019735,-0.881933 0.413406,-0.551208 0.633889,-1.267778 0.248044,-0.716571 0.413406,-1.515822 l 2.342634,-11.244644 h 2.507997 L 77.535839,29.10745 q -0.275604,1.3229 -0.799252,2.480436 -0.523647,1.157537 -1.515822,2.03947 -0.964614,0.881933 -2.507996,1.40558 -1.543382,0.496088 -3.830896,0.496088 -3.169446,0 -4.685268,-1.019735 -1.515822,-1.047295 -1.515822,-3.197007 0,-0.964614 0.248044,-2.452875 0.248044,-1.488262 0.633889,-3.224567 l 1.681185,-7.827154 h 6.25621 z"
       id="path1948"
       style="fill:#ffffff;fill-opacity:1;stroke:#ffffff;stroke-opacity:1" />
    <path
       d="m 82.799853,17.807686 h 5.980607 l -3.252128,15.185781 h 5.594762 L 90.654567,35.30854 H 79.079199 Z"
       id="path1950"
       style="fill:#ffffff;fill-opacity:1;stroke:#ffffff;stroke-opacity:1" />
    <path
       d="m 96.083918,17.807686 h 11.602932 l -0.44097,2.094591 h -5.62232 l -1.15754,5.319157 h 4.71283 l -0.44097,2.06703 h -4.71282 l -1.267783,5.897926 h 5.622323 l -0.41341,2.12215 H 92.363264 Z"
       id="path1952"
       style="fill:#ffffff;fill-opacity:1;stroke:#ffffff;stroke-opacity:1" />
    <path
       d="m 116.94707,22.8788 q 0.0827,-0.413406 0.0827,-1.129976 0,-0.413406 -0.0551,-0.799252 -0.0551,-0.413406 -0.19292,-0.71657 -0.13781,-0.330725 -0.41341,-0.496088 -0.2756,-0.192922 -0.71657,-0.192922 -0.49609,0 -0.90949,0.220483 -0.41341,0.220483 -0.74414,0.578768 -0.30316,0.330725 -0.49608,0.799252 -0.16536,0.440966 -0.16536,0.937053 0,0.716571 0.35828,1.102416 0.38585,0.385846 0.99217,0.63389 0.60633,0.248043 1.37802,0.413406 0.7717,0.165362 1.59851,0.385845 0.68901,0.192923 1.37802,0.496087 0.68901,0.303165 1.21266,0.826812 0.5512,0.496088 0.88193,1.3229 0.33072,0.799251 0.33072,2.011909 0,1.736305 -0.68901,2.921402 -0.68901,1.185097 -1.90166,1.929228 -1.21266,0.744131 -2.89385,1.074856 -1.65362,0.330725 -3.61041,0.330725 -1.98435,0 -3.25213,-0.248044 -1.24021,-0.275604 -1.95678,-0.578768 -0.85438,-0.358286 -1.26778,-0.826812 l 0.93705,-3.775775 h 4.85063 q -0.0276,0.248043 -0.0551,0.68901 -0.0276,0.413406 -0.0276,0.661449 0,0.330725 0.0827,0.68901 0.0827,0.358286 0.24804,0.66145 0.19293,0.303164 0.52365,0.496087 0.33073,0.192923 0.82681,0.192923 0.55121,0 0.96462,-0.248044 0.44096,-0.248043 0.71657,-0.606328 0.30316,-0.385846 0.44097,-0.826812 0.16536,-0.468527 0.16536,-0.909494 0,-0.606328 -0.30317,-1.019734 -0.2756,-0.413406 -0.77169,-0.68901 -0.49609,-0.303165 -1.15753,-0.496088 -0.63389,-0.220483 -1.3229,-0.440966 -0.66145,-0.192923 -1.40558,-0.468527 -0.71657,-0.275604 -1.3229,-0.771691 -0.60633,-0.496087 -1.01974,-1.240218 -0.38584,-0.771691 -0.38584,-1.956788 0,-1.763866 0.88193,-2.948963 0.90949,-1.212658 2.25995,-1.956789 1.37802,-0.74413 3.00409,-1.047295 1.62606,-0.330725 3.08676,-0.330725 1.92923,0 3.30725,0.468527 1.40558,0.440967 2.12215,1.047295 l -1.01974,3.830896 z"
       id="path1954"
       style="fill:#ffffff;fill-opacity:1;stroke:#ffffff;stroke-opacity:1" />
  </g>
</svg>
